<?xml version="1.0" encoding="UTF-8"?>
<!DOCTYPE svg PUBLIC "-//W3C//DTD SVG 1.1//EN" "http://www.w3.org/Graphics/SVG/1.1/DTD/svg11.dtd">
<!-- Creator: CorelDRAW X7 -->
<svg xmlns="http://www.w3.org/2000/svg" xml:space="preserve" width="210mm" height="297mm" version="1.1" style="shape-rendering:geometricPrecision; text-rendering:geometricPrecision; image-rendering:optimizeQuality; fill-rule:evenodd; clip-rule:evenodd"
viewBox="0 0 21000 29700"
 xmlns:xlink="http://www.w3.org/1999/xlink">
 <defs>
  <style type="text/css">
   <![CDATA[
    .fil0 {fill:#1F1F95}
    .fil1 {fill:#1F1F95;fill-rule:nonzero}
   ]]>
  </style>
 </defs>
 <g id="Layer_x0020_1">
  <metadata id="CorelCorpID_0Corel-Layer"/>
  <path class="fil0" d="M7813 10278l5431 0c438,0 796,358 796,796l0 5432c0,438 -358,796 -796,796l-5431 0c-439,0 -797,-358 -797,-796l0 -5432c0,-438 358,-796 797,-796zm3001 3156l31 401 31 404c5,58 -39,109 -98,114 -21,1 -40,-3 -57,-12l0 0 -217 -112 -939 1680 -42 61c-28,38 -59,74 -92,108 -174,173 -414,281 -679,281 -265,0 -505,-108 -679,-281 -173,-174 -281,-414 -281,-679 0,-21 1,-42 2,-63l-2 0c9,-160 55,-325 145,-485l1724 -3089c108,-192 251,-332 413,-422 143,-80 298,-119 455,-119 156,1 310,41 450,120 163,91 307,232 413,421l1725 3089c101,181 148,367 148,542 0,18 -1,36 -2,54l0 1 0 0 0 0c0,4 0,8 -1,11 -5,87 -22,170 -49,250l-3 8 0 2c-48,136 -127,258 -227,359 -10,10 -21,20 -32,30 -55,50 -115,94 -182,131 -15,8 -31,16 -47,24 -126,61 -268,96 -417,96 -265,0 -505,-108 -679,-281 -33,-34 -64,-70 -93,-108 -25,-32 -26,-32 -42,-61l-111 -199c-54,-96 -19,-218 77,-271 96,-54 218,-19 271,77l111 199c147,263 427,255 427,255 289,0 490,-162 567,-388l2 -4 2 -6c15,-46 24,-95 26,-145 7,-121 -22,-252 -95,-382l-333 -597 -529 -947 -863 -1545c-245,-440 -778,-456 -1033,0l-862 1545 -530 948 -333 596c-245,440 -13,925 496,925 0,0 289,8 435,-255l934 -1670 -186 -96c-52,-27 -73,-91 -45,-144 11,-21 28,-37 48,-47l339 -202 347 -207c51,-30 116,-14 146,37 9,15 14,32 15,48zm2348 1535c2,3 4,7 5,10 -1,-3 -3,-7 -5,-10zm7 14c49,101 80,211 91,327 -11,-116 -42,-227 -91,-327z"/>
  <path class="fil1" d="M8387 19399l-555 -1334 -312 0 -560 1334 350 0 98 -262 517 0 103 262 359 0zm-551 -520l-335 0 169 -458 166 458zm1395 -437c-16,-6 -42,-8 -66,-8 -115,0 -208,68 -255,162l-4 0 0 -135 -297 0 0 938 309 0 0 -482c0,-77 54,-213 220,-213 25,0 51,2 79,9l14 -271zm785 251l0 -232 -220 0 0 -247 -304 0 0 247 -149 0 0 232 151 0 0 395c0,200 83,334 334,334 66,0 137,-13 179,-28l-4 -226c-23,9 -60,15 -91,15 -88,0 -116,-46 -116,-132l0 -358 220 0zm827 329c0,117 -70,193 -194,193 -62,0 -134,-25 -134,-96 0,-112 153,-129 289,-129l39 0 0 32zm-411 -265c57,-53 143,-96 232,-96 96,0 170,43 170,135l0 15c-274,0 -603,46 -603,317 0,220 192,294 341,294 111,0 218,-45 265,-123l6 0 0 100 283 0 0 -473c0,-341 -117,-495 -432,-495 -152,0 -309,54 -418,158l156 168zm1589 -64l0 -232 -221 0 0 -247 -303 0 0 247 -149 0 0 232 151 0 0 395c0,200 83,334 333,334 66,0 138,-13 179,-28l-3 -226c-23,9 -61,15 -91,15 -89,0 -117,-46 -117,-132l0 -358 221 0zm608 -532c0,-94 -79,-170 -177,-170 -100,0 -177,80 -177,170 0,92 77,170 177,170 98,0 177,-74 177,-170zm-23 1238l0 -938 -309 0 0 938 309 0zm1378 0l-371 -492 337 -446 -349 0 -177 250 -175 -250 -360 0 339 446 -375 492 358 0 207 -288 202 288 364 0z"/>
 </g>
</svg>
